<svg xmlns="http://www.w3.org/2000/svg" version="1.1" xmlns:xlink="http://www.w3.org/1999/xlink" xmlns:svgjs="http://svgjs.dev/svgjs" width="2000" height="661" viewBox="0 0 2000 661"><g transform="matrix(1,0,0,1,-1.2121212121212466,-133.7748904701238)"><svg viewBox="0 0 396 131" data-background-color="#ffffff" preserveAspectRatio="xMidYMid meet" height="661" width="2000" xmlns="http://www.w3.org/2000/svg" xmlns:xlink="http://www.w3.org/1999/xlink"><g id="tight-bounds" transform="matrix(1,0,0,1,0.2400000000000091,26.514607198160434)"><svg viewBox="0 0 395.52 104.24418303974974" height="104.24418303974974" width="395.52"><g><svg viewBox="0 0 395.52 104.24418303974974" height="104.24418303974974" width="395.52"><g transform="matrix(1,0,0,1,0,53.72673249636036)"><svg viewBox="0 0 395.52 50.51745054338938" height="50.51745054338938" width="395.52"><g id="textblocktransform"><svg viewBox="0 0 395.52 50.51745054338938" height="50.51745054338938" width="395.52" id="textblock"><g><svg viewBox="0 0 395.52 50.51745054338938" height="50.51745054338938" width="395.52"><g transform="matrix(1,0,0,1,0,0)"><svg width="395.52" viewBox="2.3747099999999994 -20.16598 473.2513 60.44561" height="50.51745054338938" data-palette-color="#ffffff"><path d="M7.001 14.517l-4.626-0.706 5.182-33.977c1.356 0.038 2.845 0.141 4.465 0.307 1.62 0.166 3.29 0.38 5.01 0.643v0c2.821 0.43 5.152 1.241 6.993 2.432 1.847 1.199 3.169 2.655 3.967 4.368 0.804 1.714 1.052 3.58 0.745 5.596v0c-0.371 2.432-1.285 4.4-2.742 5.904-1.463 1.503-3.334 2.536-5.611 3.1-2.279 0.57-4.828 0.639-7.649 0.209v0c-1.364-0.208-2.622-0.451-3.774-0.728v0zM13.905-1.364v0c2.887 0.44 5.226 0.133 7.019-0.922 1.786-1.056 2.845-2.672 3.177-4.846v0c0.322-2.109-0.185-3.896-1.519-5.361-1.341-1.466-3.422-2.414-6.243-2.844v0c-0.877-0.134-1.706-0.243-2.489-0.329-0.789-0.087-1.528-0.152-2.215-0.196v0l-2.072 13.583c0.511 0.145 1.135 0.298 1.872 0.458 0.737 0.166 1.56 0.319 2.47 0.457zM40.319 19.863v0c-2.405-0.32-4.495-1.17-6.269-2.549-1.767-1.378-3.063-3.141-3.886-5.289-0.825-2.141-1.064-4.513-0.718-7.117v0c0.364-2.736 1.23-5.022 2.597-6.857 1.375-1.841 3.092-3.17 5.15-3.986 2.066-0.821 4.286-1.074 6.658-0.759v0c2.379 0.316 4.449 1.14 6.209 2.471 1.761 1.324 3.072 3.045 3.933 5.163 0.862 2.119 1.112 4.53 0.753 7.233v0c-0.36 2.703-1.227 4.978-2.603 6.826-1.37 1.856-3.08 3.212-5.131 4.069-2.05 0.85-4.281 1.115-6.693 0.795zM40.838 15.957v0c2.571 0.342 4.689-0.261 6.354-1.808 1.666-1.554 2.683-3.712 3.051-6.474v0c0.225-1.692 0.072-3.296-0.46-4.813-0.526-1.509-1.343-2.775-2.451-3.796-1.101-1.027-2.434-1.645-4-1.854v0c-2.571-0.342-4.682 0.238-6.335 1.74-1.659 1.501-2.675 3.653-3.048 6.454v0c-0.225 1.692-0.077 3.309 0.445 4.851 0.528 1.543 1.342 2.828 2.443 3.856 1.108 1.022 2.442 1.636 4.001 1.844zM64.294 22.246l-4.65-0.531 3.902-34.148c1.357-0.013 2.848 0.033 4.473 0.138 1.625 0.105 3.302 0.257 5.031 0.454v0c2.835 0.324 5.195 1.046 7.079 2.168 1.891 1.129 3.267 2.534 4.129 4.216 0.868 1.683 1.186 3.538 0.954 5.564v0c-0.279 2.444-1.118 4.445-2.518 6.003-1.406 1.557-3.236 2.66-5.491 3.308-2.256 0.655-4.801 0.82-7.635 0.497v0c-1.371-0.157-2.637-0.352-3.798-0.585v0zM70.595 6.117v0c2.901 0.331 5.228-0.064 6.98-1.186 1.745-1.122 2.743-2.777 2.993-4.962v0c0.242-2.12-0.331-3.886-1.72-5.299-1.395-1.414-3.51-2.283-6.345-2.607v0c-0.881-0.101-1.714-0.179-2.499-0.236-0.792-0.057-1.532-0.095-2.222-0.113v0l-1.56 13.652c0.516 0.126 1.145 0.255 1.889 0.386 0.742 0.139 1.571 0.26 2.484 0.365zM92.176 25.265l-4.408-0.445 2.569-25.48 4.408 0.444zM92.985-4.796v0c-0.856-0.086-1.554-0.468-2.095-1.146-0.541-0.684-0.77-1.434-0.688-2.25v0c0.096-0.949 0.45-1.673 1.063-2.174 0.613-0.494 1.393-0.694 2.342-0.598v0c0.849 0.086 1.545 0.461 2.088 1.125 0.543 0.664 0.771 1.421 0.686 2.27v0c-0.092 0.915-0.446 1.63-1.061 2.144-0.615 0.514-1.393 0.724-2.335 0.629zM107.855 27.291v0c-1.507-0.136-2.839-0.544-3.996-1.224-1.157-0.68-2.029-1.69-2.618-3.028-0.589-1.338-0.791-3.023-0.608-5.056v0l2.558-28.294 4.412 0.399-2.518 27.856c-0.16 1.766 0.091 3.107 0.751 4.024 0.66 0.916 1.644 1.434 2.952 1.552v0c0.624 0.056 1.245 0.039 1.862-0.053 0.617-0.091 1.148-0.218 1.591-0.378v0l0.751 3.683c-0.614 0.206-1.362 0.369-2.243 0.49-0.881 0.115-1.845 0.124-2.894 0.029zM127.299 28.812v0c-2.42-0.183-4.554-0.912-6.403-2.189-1.842-1.276-3.236-2.962-4.181-5.059-0.945-2.09-1.319-4.445-1.121-7.064v0c0.208-2.752 0.942-5.083 2.202-6.994 1.268-1.917 2.906-3.341 4.916-4.272 2.016-0.937 4.218-1.316 6.604-1.136v0c2.393 0.181 4.506 0.885 6.339 2.113 1.833 1.222 3.24 2.865 4.221 4.932 0.981 2.066 1.368 4.459 1.163 7.178v0c-0.205 2.719-0.942 5.04-2.211 6.963-1.262 1.93-2.893 3.382-4.892 4.354-1.998 0.966-4.211 1.357-6.637 1.174zM127.596 24.883v0c2.586 0.195 4.666-0.527 6.241-2.166 1.575-1.646 2.468-3.858 2.677-6.637v0c0.129-1.702-0.116-3.295-0.732-4.779-0.611-1.477-1.498-2.694-2.663-3.651-1.157-0.963-2.524-1.504-4.099-1.623v0c-2.586-0.195-4.661 0.504-6.226 2.097-1.571 1.593-2.463 3.799-2.676 6.617v0c-0.129 1.702 0.111 3.308 0.719 4.818 0.615 1.511 1.501 2.747 2.659 3.711 1.165 0.957 2.531 1.495 4.1 1.613zM155.1 30.651v0c-2.456-0.143-4.348-1.069-5.678-2.776-1.336-1.701-1.917-4.059-1.74-7.073v0l0.7-12-4.422-0.258 0.224-3.834 4.522 0.264 1.41-8.011 3.394 0.198-0.471 8.066 7.078 0.414-0.224 3.833-7.078-0.413-0.721 12.339c-0.111 1.903 0.211 3.254 0.965 4.053 0.761 0.799 1.698 1.231 2.81 1.296v0c0.819 0.048 1.605-0.036 2.358-0.253 0.754-0.223 1.455-0.496 2.102-0.819v0l1.021 3.616c-0.682 0.354-1.589 0.685-2.723 0.993-1.14 0.314-2.316 0.436-3.527 0.365zM200.485 17.13l-16.729-0.61 0.147-4.037 16.729 0.61zM253.973 31.216l-4.284 1.71-3.816-9.859-15.96-0.038-3.863 9.741-3.986-1.629 13.568-33.208 5.13 0.012zM237.941 2.568l-6.539 16.525 12.95 0.03zM267.034 32.82v0c-1.48 0.025-2.881-0.262-4.205-0.86-1.317-0.605-2.4-1.597-3.25-2.976-0.843-1.386-1.284-3.242-1.323-5.569v0l-0.277-16.648 4.43-0.073 0.267 16.057c0.033 2 0.489 3.526 1.366 4.578 0.871 1.052 2.126 1.565 3.766 1.538v0c1.346-0.022 2.645-0.314 3.896-0.875 1.258-0.561 2.372-1.31 3.343-2.246v0l-0.32-19.257 4.429-0.074 0.316 18.957c0.024 1.413 0.342 2.335 0.956 2.765 0.614 0.437 1.281 0.649 2.001 0.637v0l-0.873 3.465c-3.053 0.051-4.963-1.134-5.73-3.556v0c-1.127 1.206-2.437 2.188-3.931 2.946-1.501 0.765-3.121 1.162-4.861 1.191zM297.6 32.026v0c-2.459 0.084-4.429-0.662-5.911-2.239-1.488-1.57-2.284-3.864-2.387-6.882v0l-0.413-12.013-4.427 0.153-0.132-3.838 4.527-0.156 0.662-8.107 3.398-0.117 0.278 8.075 7.085-0.243 0.132 3.838-7.086 0.243 0.425 12.353c0.065 1.906 0.511 3.221 1.336 3.946 0.832 0.725 1.804 1.069 2.917 1.031v0c0.82-0.028 1.595-0.185 2.325-0.47 0.73-0.292 1.403-0.629 2.017-1.01v0l1.351 3.505c-0.646 0.416-1.519 0.829-2.619 1.241-1.106 0.418-2.266 0.648-3.478 0.69zM318.163 31.105v0c-2.424 0.118-4.632-0.341-6.625-1.378-1.986-1.038-3.578-2.538-4.775-4.503-1.197-1.957-1.859-4.248-1.988-6.871v0c-0.135-2.757 0.305-5.161 1.32-7.213 1.021-2.059 2.47-3.675 4.349-4.848 1.885-1.18 4.022-1.828 6.413-1.945v0c2.397-0.117 4.581 0.32 6.551 1.312 1.97 0.985 3.57 2.442 4.799 4.371 1.229 1.929 1.91 4.255 2.043 6.979v0c0.133 2.723-0.311 5.118-1.331 7.183-1.013 2.072-2.452 3.714-4.315 4.927-1.863 1.206-4.01 1.868-6.441 1.986zM317.971 27.17v0c2.59-0.126 4.565-1.101 5.925-2.923 1.359-1.828 1.971-4.134 1.834-6.917v0c-0.083-1.705-0.523-3.255-1.318-4.652-0.789-1.39-1.82-2.488-3.094-3.293-1.268-0.812-2.691-1.18-4.269-1.103v0c-2.59 0.126-4.563 1.077-5.918 2.852-1.362 1.775-1.974 4.074-1.836 6.898v0c0.083 1.705 0.52 3.269 1.31 4.692 0.797 1.423 1.829 2.54 3.098 3.353 1.274 0.805 2.697 1.17 4.268 1.093zM342.128 39.98l-4.43 0.3-2.019-29.822c-0.075-1.111-0.398-1.884-0.969-2.32-0.571-0.442-1.282-0.635-2.134-0.577v0l0.704-3.506c3.013-0.204 4.977 0.866 5.891 3.21v0c0.293-0.514 0.786-1.122 1.48-1.825 0.694-0.709 1.573-1.346 2.637-1.912 1.064-0.567 2.298-0.897 3.701-0.992v0c1.969-0.133 3.846 0.257 5.632 1.172 1.793 0.921 3.278 2.32 4.454 4.198 1.183 1.878 1.869 4.207 2.057 6.987v0c0.184 2.72-0.18 5.141-1.092 7.261-0.906 2.113-2.165 3.792-3.778 5.036-1.606 1.245-3.394 1.934-5.363 2.068v0c-1.503 0.102-2.93-0.106-4.282-0.623-1.351-0.517-2.479-1.138-3.383-1.865v0zM347.745 25.387v0c2.228-0.151 3.982-1.148 5.26-2.993 1.271-1.85 1.81-4.199 1.617-7.045v0c-0.133-1.969-0.6-3.631-1.4-4.987-0.801-1.362-1.808-2.38-3.023-3.052-1.209-0.68-2.518-0.972-3.928-0.877v0c-1.41 0.096-2.657 0.534-3.74 1.316-1.083 0.782-1.889 1.601-2.419 2.459v0l0.852 12.581c0.911 0.827 1.942 1.489 3.091 1.986 1.156 0.496 2.386 0.7 3.69 0.612zM377.196 27.007v0c-2.417 0.211-4.642-0.163-6.673-1.123-2.025-0.961-3.673-2.399-4.945-4.315-1.271-1.91-2.021-4.173-2.251-6.79v0c-0.241-2.749 0.107-5.169 1.042-7.258 0.941-2.097 2.327-3.767 4.159-5.012 1.838-1.252 3.949-1.982 6.333-2.19v0c2.391-0.209 4.59 0.144 6.597 1.059 2.007 0.909 3.661 2.303 4.964 4.183 1.302 1.88 2.072 4.179 2.31 6.895v0c0.238 2.716-0.114 5.126-1.054 7.23-0.933 2.109-2.307 3.806-4.122 5.088-1.816 1.276-3.936 2.021-6.36 2.233zM376.853 23.082v0c2.583-0.226 4.519-1.275 5.807-3.148 1.288-1.879 1.81-4.207 1.568-6.983v0c-0.149-1.7-0.648-3.233-1.497-4.597-0.842-1.358-1.915-2.416-3.218-3.172-1.298-0.763-2.734-1.076-4.309-0.938v0c-2.583 0.226-4.518 1.252-5.803 3.078-1.292 1.826-1.815 4.147-1.569 6.963v0c0.149 1.7 0.645 3.246 1.489 4.638 0.851 1.391 1.926 2.468 3.224 3.231 1.304 0.756 2.74 1.065 4.308 0.928zM402.872 24.532v0c-1.923 0.202-3.686 0.139-5.288-0.189-1.603-0.328-2.953-0.83-4.05-1.505v0l1.475-3.865c0.924 0.627 2.057 1.111 3.4 1.453 1.336 0.336 2.739 0.426 4.212 0.272v0c1.83-0.192 3.177-0.638 4.042-1.34 0.872-0.701 1.258-1.526 1.158-2.474v0c-0.072-0.683-0.307-1.268-0.707-1.756-0.4-0.488-1.084-0.935-2.051-1.343-0.969-0.414-2.349-0.823-4.141-1.225v0c-2.466-0.566-4.355-1.349-5.666-2.351-1.312-1.002-2.072-2.497-2.281-4.486v0c-0.206-1.963 0.479-3.71 2.054-5.243 1.568-1.539 3.87-2.467 6.907-2.787v0c1.638-0.172 3.111-0.152 4.42 0.059 1.309 0.211 2.495 0.526 3.558 0.944v0l-0.843 3.749c-0.937-0.431-1.986-0.75-3.147-0.957-1.155-0.207-2.418-0.239-3.791-0.095v0c-1.697 0.178-2.951 0.655-3.761 1.43-0.81 0.775-1.172 1.574-1.086 2.397v0c0.082 0.782 0.493 1.413 1.234 1.891 0.748 0.485 2.151 0.951 4.209 1.399v0c3.342 0.735 5.718 1.689 7.128 2.861 1.417 1.172 2.228 2.739 2.434 4.702v0c0.239 2.281-0.496 4.181-2.207 5.701-1.705 1.513-4.109 2.432-7.212 2.758zM428.031 21.67v0c-2.442 0.293-4.469-0.283-6.08-1.728-1.616-1.438-2.604-3.656-2.964-6.655v0l-1.432-11.934-4.398 0.528-0.458-3.813 4.498-0.54-0.029-8.134 3.375-0.405 0.963 8.022 7.04-0.845 0.457 3.813-7.039 0.845 1.472 12.272c0.227 1.893 0.783 3.166 1.667 3.818 0.891 0.652 1.889 0.911 2.994 0.779v0c0.814-0.098 1.573-0.32 2.277-0.666 0.703-0.353 1.344-0.745 1.923-1.177v0l1.645 3.378c-0.608 0.469-1.443 0.955-2.504 1.459-1.067 0.511-2.202 0.838-3.408 0.982zM447.895 19.092v0c-3.641 0.487-6.684-0.29-9.13-2.331-2.439-2.041-3.939-5.16-4.499-9.356v0c-0.339-2.537-0.164-4.871 0.526-7.002 0.69-2.13 1.821-3.889 3.391-5.275 1.57-1.387 3.495-2.233 5.775-2.538v0c2.438-0.326 4.534-0.068 6.288 0.773 1.754 0.842 3.157 2.104 4.208 3.786 1.052 1.682 1.722 3.597 2.01 5.744v0c0.152 1.137 0.25 2.25 0.295 3.341v0l-17.762 2.375c0.608 2.333 1.685 4.076 3.231 5.227 1.546 1.152 3.439 1.578 5.68 1.279v0c1.467-0.196 2.764-0.528 3.892-0.995 1.129-0.46 2.199-1.007 3.211-1.64v0l1.524 3.62c-1.1 0.678-2.361 1.284-3.783 1.818-1.414 0.539-3.033 0.93-4.857 1.174zM438.47 5.047v0l13.906-1.86c-0.33-2.471-1.203-4.292-2.616-5.461-1.414-1.17-3.212-1.609-5.393-1.317v0c-1.89 0.253-3.364 1.122-4.423 2.609-1.06 1.48-1.551 3.49-1.474 6.029zM468.785 15.537l-4.381 0.653-3.779-25.33 4.233-0.631 0.822 5.509c0.262-1.138 0.683-2.222 1.264-3.252 0.574-1.029 1.353-1.907 2.337-2.634 0.989-0.734 2.199-1.208 3.63-1.421v0c0.488-0.073 0.977-0.119 1.466-0.138 0.495-0.027 0.911-0.015 1.249 0.036v0l-0.63 4.725c-0.659-0.171-1.411-0.194-2.255-0.068v0c-1.2 0.179-2.293 0.693-3.278 1.541-0.987 0.841-1.723 2.03-2.208 3.564-0.485 1.535-0.564 3.404-0.236 5.606v0z" opacity="1" transform="matrix(1,0,0,1,0,0)" fill="#ffffff" class="wordmark-text-0" data-fill-palette-color="primary" id="text-0"></path></svg></g></svg></g></svg></g></svg></g><g transform="matrix(1,0,0,1,148.8722020992454,0)"><svg viewBox="0 0 97.77559580150917 50.51745054338938" height="50.51745054338938" width="97.77559580150917"><g><svg xmlns="http://www.w3.org/2000/svg" data-name="outline copy 5" viewBox="16 136 480 248.00029150477064" x="0" y="0" height="50.51745054338938" width="97.77559580150917" class="icon-icon-0" data-fill-palette-color="accent" id="icon-0"><path d="M464 136H48A32.036 32.036 0 0 0 16 168V304A32.036 32.036 0 0 0 48 336H204.687L250.343 381.657A8 8 0 0 0 261.657 381.657L307.313 336H464A32.036 32.036 0 0 0 496 304V168A32.036 32.036 0 0 0 464 136M480 304A16.02 16.02 0 0 1 464 320H304A8 8 0 0 0 298.343 322.343L256 364.687 213.657 322.343A8 8 0 0 0 208 320H48A16.02 16.02 0 0 1 32 304V230.861A24.8 24.8 0 0 0 38.343 241.661L66.343 269.661A8 8 0 0 0 77.657 269.661L105.657 241.661A24.972 24.972 0 0 0 72 204.826 24.956 24.956 0 0 0 32 217.139V168A16.02 16.02 0 0 1 48 152H464A16.02 16.02 0 0 1 480 168ZM49.657 217.657A8.97 8.97 0 0 1 62.343 217.657L66.343 221.657A8 8 0 0 0 77.657 221.657L81.657 217.657A8.97 8.97 0 1 1 94.343 230.343L72 252.686 49.657 230.343A8.98 8.98 0 0 1 49.657 217.657" fill="#ffffff" data-fill-palette-color="accent"></path><path d="M240.384 241.514A24 24 0 1 0 207.616 241.514 24.04 24.04 0 0 0 192 264V272H208V264A8.01 8.01 0 0 1 216 256H232A8.01 8.01 0 0 1 240 264V272H256V264A24.04 24.04 0 0 0 240.384 241.514M224 216A8 8 0 1 1 216 224 8.01 8.01 0 0 1 224 216" fill="#ffffff" data-fill-palette-color="accent"></path><rect x="128" y="216" width="16" height="48" fill="#ffffff" data-fill-palette-color="accent"></rect><rect x="152" y="216" width="16" height="48" fill="#ffffff" data-fill-palette-color="accent"></rect><rect x="272" y="216" width="16" height="48" fill="#ffffff" data-fill-palette-color="accent"></rect><rect x="296" y="216" width="16" height="48" fill="#ffffff" data-fill-palette-color="accent"></rect><rect x="424" y="216" width="16" height="48" fill="#ffffff" data-fill-palette-color="accent"></rect><rect x="448" y="216" width="16" height="48" fill="#ffffff" data-fill-palette-color="accent"></rect><path d="M372 200C352.149 200 336 214.355 336 232S352.149 264 372 264A40.2 40.2 0 0 0 386.235 261.4L398.435 263.84A8 8 0 0 0 407.849 254.426L405.649 243.426A28.7 28.7 0 0 0 408 232C408 214.355 391.851 200 372 200M390.284 238.448A8 8 0 0 0 389.425 243.916L389.802 245.802 386.964 245.234A8 8 0 0 0 382.005 245.834 23.75 23.75 0 0 1 372 248C360.972 248 352 240.822 352 232S360.972 216 372 216 392 223.178 392 232A13.1 13.1 0 0 1 390.284 238.448" fill="#ffffff" data-fill-palette-color="accent"></path></svg></g></svg></g><g></g></svg></g><defs></defs></svg><rect width="395.52" height="104.24418303974974" fill="none" stroke="none" visibility="hidden"></rect></g></svg></g></svg>